<?xml version="1.0" encoding="utf-8"?>
<svg viewBox="29.973 10 83.027 10.1496" xmlns="http://www.w3.org/2000/svg" xmlns:bx="https://boxy-svg.com">
  <path transform="matrix(1, 0.00003900001, 0.005913000088, 1, 30.042915662801, 5.542554553555)" style="fill: rgb(42, 89, 255); transform-origin: 7.966px 16.435px;" d="M 1.994 4.607 H 5 A 5 5 0 0 1 10 9.607 V 9.622 A 4.985 4.985 0 0 1 5.015 14.607 H 1.994 A 1.994 1.994 0 0 1 0 12.613 V 6.601 A 1.994 1.994 0 0 1 1.994 4.607 Z" bx:shape="rect 0 4.607 10 10 1.994 5.015 4.985 1.994 1@02ba9d21"/>
  <rect transform="matrix(1, -0.000048000002, -0.003397000022, 1, 28.353981819898, 0.225238977699)" style="fill: rgb(42, 255, 148); transform-origin: 8.163px 14.775px;" x="3.163" y="9.775" width="10" height="10" rx="5.009" ry="5.009"/>
  <path d="M 72.68 15.678 C 72.68 15.215 72.778 14.786 72.974 14.393 C 73.163 13.993 73.429 13.649 73.758 13.362 C 74.101 13.066 74.5 12.837 74.962 12.678 C 75.424 12.508 75.921 12.426 76.453 12.426 C 76.929 12.426 77.363 12.49 77.769 12.618 C 78.182 12.737 78.553 12.91 78.875 13.134 C 79.197 13.349 79.463 13.614 79.68 13.926 C 79.89 14.238 80.03 14.583 80.093 14.958 L 78.224 14.958 C 78.105 14.645 77.895 14.393 77.587 14.201 C 77.286 14.002 76.915 13.902 76.474 13.902 C 76.18 13.902 75.9 13.951 75.655 14.046 C 75.417 14.143 75.207 14.274 75.032 14.442 C 74.864 14.602 74.731 14.79 74.633 15.006 C 74.542 15.215 74.493 15.439 74.493 15.678 C 74.493 15.91 74.542 16.134 74.633 16.351 C 74.731 16.558 74.864 16.747 75.032 16.916 C 75.207 17.076 75.417 17.203 75.655 17.3 C 75.9 17.394 76.18 17.442 76.474 17.442 C 76.901 17.442 77.272 17.347 77.58 17.156 C 77.888 16.963 78.105 16.716 78.224 16.411 L 80.093 16.411 C 80.016 16.779 79.876 17.119 79.666 17.431 C 79.456 17.736 79.183 17.999 78.861 18.224 C 78.553 18.44 78.182 18.611 77.769 18.739 C 77.363 18.859 76.929 18.92 76.453 18.92 C 75.921 18.92 75.424 18.84 74.962 18.68 C 74.5 18.512 74.101 18.283 73.758 17.996 C 73.429 17.7 73.163 17.355 72.974 16.963 C 72.778 16.564 72.68 16.134 72.68 15.678 Z M 81.43 12.545 L 83.173 12.545 L 83.173 13.758 C 83.467 13.31 83.845 12.978 84.321 12.763 C 84.797 12.538 85.308 12.426 85.854 12.426 L 85.854 14.022 C 85.539 14.014 85.224 14.054 84.909 14.143 C 84.601 14.222 84.314 14.343 84.055 14.503 C 83.81 14.661 83.6 14.866 83.432 15.115 C 83.278 15.354 83.187 15.634 83.173 15.955 L 83.173 18.811 L 81.43 18.811 L 81.43 12.545 Z M 94.114 18.811 L 92.371 18.811 L 92.371 17.983 C 92.147 18.28 91.853 18.512 91.482 18.68 C 91.118 18.84 90.656 18.92 90.103 18.92 C 89.592 18.92 89.123 18.84 88.689 18.68 C 88.269 18.512 87.898 18.283 87.583 17.996 C 87.275 17.7 87.03 17.355 86.855 16.963 C 86.687 16.564 86.603 16.134 86.603 15.678 C 86.603 15.215 86.687 14.786 86.855 14.393 C 87.03 13.993 87.275 13.649 87.583 13.362 C 87.898 13.066 88.269 12.837 88.689 12.678 C 89.123 12.508 89.599 12.426 90.117 12.426 C 90.67 12.426 91.125 12.508 91.482 12.678 C 91.853 12.837 92.147 13.066 92.371 13.362 L 92.371 12.545 L 94.114 12.545 L 94.114 18.811 Z M 92.371 15.391 C 92.301 14.974 92.098 14.626 91.748 14.346 C 91.398 14.059 90.95 13.914 90.404 13.914 C 90.103 13.914 89.823 13.962 89.578 14.059 C 89.326 14.153 89.116 14.282 88.941 14.442 C 88.773 14.602 88.647 14.79 88.556 15.006 C 88.465 15.222 88.416 15.451 88.416 15.691 C 88.416 15.923 88.465 16.143 88.556 16.351 C 88.647 16.558 88.773 16.742 88.941 16.903 C 89.116 17.063 89.326 17.191 89.578 17.287 C 89.823 17.384 90.103 17.431 90.404 17.431 C 90.67 17.431 90.922 17.394 91.153 17.323 C 91.384 17.243 91.58 17.139 91.748 17.01 C 91.923 16.875 92.063 16.719 92.161 16.543 C 92.273 16.359 92.343 16.166 92.371 15.967 L 92.371 15.391 Z M 100.547 10 L 100.547 11.345 L 99.182 11.345 C 98.538 11.345 98.216 11.685 98.216 12.366 L 98.216 12.545 L 100.302 12.545 L 100.302 13.806 L 98.216 13.806 L 98.216 18.811 L 96.487 18.811 L 96.487 13.806 L 95.297 13.806 L 95.297 12.545 L 96.487 12.545 L 96.487 12.318 C 96.487 11.557 96.69 10.981 97.096 10.589 C 97.495 10.197 98.104 10 98.916 10 L 100.547 10 Z M 103.956 10.697 L 103.956 12.545 L 105.755 12.545 L 105.755 13.806 L 103.956 13.806 L 103.956 16.639 C 103.956 16.991 104.047 17.226 104.236 17.347 C 104.418 17.467 104.67 17.527 104.992 17.527 C 105.111 17.527 105.23 17.523 105.349 17.515 C 105.482 17.499 105.615 17.483 105.755 17.467 L 105.755 18.848 C 105.328 18.896 104.936 18.92 104.579 18.92 C 104.208 18.92 103.879 18.888 103.585 18.824 C 103.284 18.759 103.039 18.651 102.836 18.499 C 102.633 18.338 102.479 18.136 102.367 17.887 C 102.262 17.632 102.213 17.32 102.213 16.951 L 102.213 13.806 L 100.981 13.806 L 100.981 12.545 L 102.213 12.545 L 102.213 10.697 L 103.956 10.697 Z M 106.959 14.346 C 106.959 13.738 107.218 13.265 107.729 12.929 C 108.247 12.593 108.968 12.426 109.892 12.426 C 110.83 12.426 111.544 12.596 112.048 12.941 C 112.552 13.286 112.818 13.769 112.832 14.393 L 111.061 14.393 C 111.054 14.162 110.942 13.978 110.732 13.843 C 110.529 13.698 110.256 13.626 109.899 13.626 C 109.514 13.626 109.22 13.686 109.017 13.806 C 108.814 13.919 108.716 14.082 108.716 14.298 C 108.716 14.521 108.821 14.69 109.031 14.802 C 109.241 14.906 109.507 14.99 109.822 15.055 C 110.144 15.118 110.487 15.182 110.858 15.247 C 111.222 15.303 111.565 15.394 111.88 15.523 C 112.202 15.642 112.468 15.818 112.685 16.051 C 112.895 16.275 113 16.587 113 16.987 C 113 17.587 112.741 18.059 112.223 18.403 C 111.719 18.739 110.963 18.908 109.955 18.908 C 108.926 18.908 108.142 18.727 107.61 18.367 C 107.071 18.007 106.805 17.523 106.805 16.916 L 108.576 16.916 C 108.66 17.442 109.129 17.707 109.983 17.707 C 110.809 17.707 111.215 17.491 111.215 17.058 C 111.215 16.843 111.11 16.683 110.9 16.58 C 110.69 16.475 110.424 16.395 110.109 16.338 C 109.794 16.275 109.458 16.215 109.087 16.159 C 108.716 16.103 108.38 16.01 108.065 15.883 C 107.75 15.755 107.491 15.573 107.274 15.342 C 107.064 15.102 106.959 14.77 106.959 14.346 Z" style="fill: rgb(255, 255, 255);" transform="matrix(1, 0, 0, 1, 0, -3.552713678800501e-15)"/>
  <polygon points="51.722 10.962 50.525 16.566 49.244 10.962 47.144 10.962 45.87 16.566 44.673 10.962 43 10.962 44.834 18.978 46.822 18.978 48.194 13.286 49.559 18.978 51.54 18.978 53.486 10.962 51.722 10.962" style="fill: rgb(255, 255, 255);" transform="matrix(1, 0, 0, 1, 0, -3.552713678800501e-15)"/>
  <path d="M 67.885 15.865 L 68.333 15.865 L 71.049 18.863 L 73.247 18.863 L 70.118 15.537 C 72.218 14.68 72.806 12.958 72.708 11.967 C 72.708 11.961 71.133 11.964 71.133 11.972 C 71.063 13.307 70.664 14.298 67.885 14.579 L 67.885 10.357 L 65.932 10.357 L 65.932 18.863 L 67.878 18.863 L 67.885 15.865 Z" style="fill: rgb(255, 255, 255);" transform="matrix(1, 0, 0, 1, 0, -3.552713678800501e-15)"/>
  <path d="M 61.032 12.594 L 62.775 12.594 L 62.775 13.806 C 63.069 13.358 63.454 13.025 63.923 12.809 C 64.399 12.586 64.917 12.473 65.456 12.473 L 65.456 14.071 C 65.141 14.062 64.833 14.102 64.518 14.19 C 64.203 14.271 63.916 14.39 63.664 14.549 C 63.412 14.71 63.202 14.914 63.041 15.162 C 62.88 15.402 62.796 15.683 62.775 16.004 L 62.775 18.86 L 61.032 18.86 L 61.032 12.594 Z" style="fill: rgb(255, 255, 255);" transform="matrix(1, 0, 0, 1, 0, -3.552713678800501e-15)"/>
  <path d="M 53.024 15.758 C 53.024 15.293 53.115 14.865 53.311 14.473 C 53.507 14.073 53.766 13.729 54.102 13.441 C 54.438 13.146 54.844 12.917 55.299 12.757 C 55.761 12.588 56.258 12.505 56.797 12.505 C 57.329 12.505 57.826 12.588 58.288 12.757 C 58.75 12.917 59.149 13.146 59.492 13.441 C 59.835 13.729 60.101 14.073 60.29 14.473 C 60.486 14.865 60.584 15.293 60.584 15.758 C 60.584 16.213 60.486 16.642 60.29 17.041 C 60.101 17.435 59.835 17.779 59.492 18.074 C 59.149 18.363 58.75 18.592 58.288 18.758 C 57.826 18.919 57.329 19 56.797 19 C 56.258 19 55.761 18.919 55.299 18.758 C 54.844 18.592 54.438 18.363 54.102 18.074 C 53.759 17.779 53.493 17.435 53.297 17.041 C 53.115 16.642 53.024 16.213 53.024 15.758 Z M 54.844 15.758 C 54.844 15.989 54.893 16.213 54.984 16.43 C 55.075 16.638 55.201 16.822 55.369 16.983 C 55.544 17.142 55.754 17.27 55.992 17.367 C 56.244 17.462 56.517 17.511 56.811 17.511 C 57.105 17.511 57.371 17.462 57.609 17.367 C 57.854 17.27 58.057 17.142 58.218 16.983 C 58.393 16.822 58.526 16.638 58.624 16.43 C 58.715 16.213 58.757 15.989 58.757 15.758 C 58.757 15.527 58.715 15.301 58.624 15.086 C 58.526 14.869 58.393 14.681 58.218 14.52 C 58.057 14.36 57.854 14.233 57.609 14.137 C 57.371 14.042 57.105 13.992 56.811 13.992 C 56.517 13.992 56.244 14.042 55.992 14.137 C 55.754 14.233 55.544 14.36 55.369 14.52 C 55.201 14.681 55.075 14.869 54.984 15.086 C 54.893 15.301 54.844 15.527 54.844 15.758 Z" style="fill: rgb(255, 255, 255);" transform="matrix(1, 0, 0, 1, 0, -3.552713678800501e-15)"/>
</svg>